<svg xmlns="http://www.w3.org/2000/svg" fill="none" viewBox="0 0 24 24" id="Mantine-Icon--Streamline-Svg-Logos" height="24" width="24">
  <desc>
    Mantine Icon Streamline Icon: https://streamlinehq.com
  </desc>
  <path fill="#339af0" d="M23.6896 12c0 -6.489325 -5.233575 -11.75 -11.68945 -11.75C5.544 0.25 0.310425 5.510675 0.310425 12c0 6.489175 5.233575 11.75 11.6896 11.75 6.456 0 11.689575 -5.260825 11.689575 -11.75Z" stroke-width="0.25"></path>
  <path fill="#ffffff" d="M10.4086 6.104925c0.23335 -0.0346 0.470875 0.025225 0.66 0.16625 0.387375 0.288825 0.744725 0.615725 1.0667 0.97575l0.07975 0.090675h2.521425c0.491775 0 0.889975 0.3995 0.889975 0.89285 0 0.48255 -0.381375 0.8752 -0.857375 0.892425l-0.0326 0.000575h-1.3927c0.3891 0.895825 0.588875 1.862375 0.586775 2.83905 0.00195 0.9417 -0.1838 1.873975 -0.54595 2.7425l-0.04095 0.096225h1.391975c0.4919 0 0.8901 0.39965 0.8901 0.893 0 0.4824 -0.381525 0.8752 -0.8575 0.892425l-0.0326 0.000575h-2.522c-0.342225 0.395575 -0.726375 0.752825 -1.14575 1.06545 -0.18935 0.1412 -0.427225 0.201075 -0.660875 0.166325 -0.23365 -0.03475 -0.4438 -0.16125 -0.5839 -0.35145 -0.069475 -0.09415 -0.1198 -0.201275 -0.1482 -0.315175 -0.0575 -0.229875 -0.0215 -0.473175 0.10005 -0.676575 0.0599 -0.100375 0.1391 -0.1879 0.232975 -0.2575 1.361575 -1.0144 2.143275 -2.5654 2.143275 -4.25595 0 -1.69055 -0.7817 -3.24155 -2.143275 -4.25595 -0.094 -0.069575 -0.173275 -0.1571 -0.23325 -0.2575 -0.178225 -0.2994 -0.16685 -0.673625 0.026225 -0.960925l0.0222 -0.03155c0.1415 -0.189975 0.35175 -0.316375 0.5855 -0.3515Zm-0.160325 4.329775c0.1624 0.069225 0.309225 0.170375 0.4318 0.297425 0.123025 0.1276 0.219425 0.2784 0.283575 0.443625 0.0643 0.1657 0.095175 0.342475 0.090825 0.520175 -0.008 0.34715 -0.150375 0.677675 -0.3972 0.921975 -0.24515 0.2426 -0.57605 0.37885 -0.92095 0.379175 -0.345025 -0.00025 -0.676025 -0.1365 -0.921275 -0.379175 -0.2468 -0.2443 -0.3892 -0.574825 -0.397175 -0.921975 -0.00425 -0.1777 0.0267 -0.3545 0.0911 -0.520175 0.06415 -0.165225 0.16055 -0.316025 0.2836 -0.443625 0.122525 -0.127025 0.2693 -0.228175 0.43165 -0.297425 0.327125 -0.139375 0.696925 -0.139375 1.02405 0Z" stroke-width="0.25"></path>
</svg>